<?xml version="1.0" standalone="no"?>
<!DOCTYPE svg PUBLIC "-//W3C//DTD SVG 20010904//EN"
 "http://www.w3.org/TR/2001/REC-SVG-20010904/DTD/svg10.dtd">
<svg version="1.0" xmlns="http://www.w3.org/2000/svg"
 width="723.000000pt" height="723.000000pt" viewBox="0 0 723.000000 723.000000"
 preserveAspectRatio="xMidYMid meet">
<metadata>
Created by potrace 1.11, written by Peter Selinger 2001-2013
</metadata>
<g transform="translate(0.000000,723.000000) scale(0.100000,-0.100000)"
fill="#000000" stroke="none">
<path d="M4003 4766 c1 -6 5 -13 9 -16 4 -4 10 -20 14 -37 5 -27 3 -31 -22
-37 -16 -4 -31 -11 -34 -15 -3 -4 -111 -61 -240 -125 -129 -65 -241 -123 -247
-128 -7 -6 -13 -7 -13 -2 0 5 -4 3 -9 -4 -4 -7 -14 -14 -22 -16 -8 -1 -34 -13
-59 -26 -118 -62 -266 -133 -272 -132 -10 3 -10 -10 0 -26 7 -9 18 -7 53 10
24 13 46 26 49 29 4 5 115 59 130 64 11 3 105 50 110 55 3 3 64 34 135 69 72
36 133 69 137 75 4 6 8 8 8 4 0 -4 70 29 156 72 85 44 159 80 162 80 4 0 18
-19 31 -42 l24 -43 10 28 c5 15 13 27 18 27 5 0 8 3 7 8 -3 8 60 103 76 114
12 8 10 9 -69 14 -27 1 -71 4 -97 6 -29 3 -46 0 -45 -6z"/>
<path d="M4147 4560 c-3 -10 0 -21 7 -24 7 -3 7 -5 -1 -5 -7 -1 -13 -6 -13
-12 0 -5 4 -8 9 -4 6 3 6 -6 1 -24 -6 -21 -5 -31 3 -35 9 -3 8 -5 0 -5 -7 -1
-13 -6 -13 -12 0 -5 4 -8 9 -4 6 3 6 -6 1 -24 -6 -21 -5 -31 3 -35 9 -3 8 -5
0 -5 -7 -1 -13 -6 -13 -12 0 -5 5 -7 10 -4 6 3 10 1 10 -4 0 -6 -5 -11 -11
-11 -8 0 -7 -6 2 -17 10 -11 10 -14 2 -9 -7 4 -13 3 -13 -3 0 -5 6 -12 13 -14
9 -4 9 -6 -1 -6 -10 -1 -10 -6 -2 -21 8 -15 8 -20 -1 -20 -8 0 -8 -4 1 -15 10
-12 10 -15 -1 -15 -11 0 -11 -2 1 -10 12 -8 12 -10 1 -10 -11 0 -11 -3 0 -17
10 -11 10 -14 2 -9 -16 9 -16 1 -3 -25 8 -14 7 -19 -1 -19 -8 0 -8 -4 1 -15
10 -12 10 -15 0 -15 -9 0 -9 -4 1 -17 10 -11 10 -14 2 -9 -16 9 -17 -6 -1 -22
9 -9 9 -12 0 -12 -7 0 -12 -5 -12 -11 0 -5 4 -7 10 -4 6 4 7 -2 1 -17 -5 -15
-5 -31 0 -41 7 -12 6 -17 -2 -17 -8 0 -8 -4 1 -15 10 -12 10 -15 0 -15 -9 0
-9 -4 1 -17 10 -11 10 -14 2 -9 -16 9 -17 -6 -1 -22 7 -7 8 -12 2 -12 -11 0
-10 -62 1 -81 5 -8 4 -10 -3 -5 -7 4 -12 2 -12 -3 0 -6 6 -11 13 -11 7 0 8 -3
2 -8 -5 -4 -10 -29 -10 -57 0 -27 5 -53 10 -57 6 -5 5 -8 -2 -8 -7 0 -13 -5
-13 -11 0 -5 3 -8 8 -6 10 7 2 -116 -9 -128 -6 -5 -9 -2 -9 8 0 19 -20 58 -34
68 -5 4 -5 12 -2 18 4 6 2 11 -4 11 -6 0 -9 4 -6 9 4 5 2 11 -3 13 -6 2 -48
82 -56 108 -6 19 -41 86 -47 88 -4 2 -5 9 -2 16 3 7 -2 19 -11 26 -8 7 -15 21
-15 31 0 11 -4 19 -10 19 -5 0 -10 5 -10 11 0 7 -19 51 -42 98 -23 47 -43 88
-43 91 -1 3 -15 32 -30 65 -16 33 -28 63 -27 68 1 4 -2 7 -8 7 -5 0 -10 6 -10
13 0 6 -8 26 -19 43 -17 29 -21 30 -67 25 l-49 -6 0 -75 c-1 -41 3 -81 8 -87
5 -7 6 -13 1 -13 -5 0 -9 -41 -9 -90 0 -52 4 -90 9 -90 6 0 5 -5 -2 -12 -7 -7
-8 -17 -1 -30 5 -10 6 -18 2 -18 -5 0 -9 -22 -9 -50 0 -27 4 -50 9 -50 4 0 5
-5 1 -12 -12 -18 -12 -101 -1 -115 5 -7 6 -13 1 -13 -5 0 -9 -59 -9 -130 0
-72 4 -130 9 -130 5 0 5 -5 0 -12 -5 -7 -9 -31 -9 -53 l0 -40 48 -3 47 -3 0
412 c0 227 4 409 8 404 5 -6 15 -26 22 -45 7 -19 20 -43 28 -52 8 -10 12 -18
9 -18 -3 0 9 -29 28 -65 19 -36 33 -65 30 -65 -3 0 6 -18 20 -40 14 -22 22
-40 19 -40 -4 0 -1 -6 5 -13 6 -8 8 -17 4 -20 -3 -4 -1 -7 5 -7 6 0 14 -10 17
-21 4 -12 35 -79 68 -148 34 -69 62 -128 62 -131 1 -3 17 -37 35 -76 l33 -71
59 -2 58 -1 0 645 0 645 -44 0 c-35 0 -45 -4 -49 -20z"/>
<path d="M2395 4311 c-141 -48 -216 -150 -209 -284 4 -69 24 -115 70 -161 53
-53 112 -77 316 -130 141 -37 187 -64 211 -127 32 -86 -11 -176 -103 -216 -41
-17 -144 -23 -208 -11 -61 11 -146 51 -208 98 l-51 38 -31 -36 c-17 -21 -32
-42 -32 -48 0 -14 101 -84 163 -112 104 -48 264 -64 365 -38 146 39 233 144
232 280 -2 155 -92 232 -345 297 -140 35 -195 59 -229 100 -67 80 -30 202 74
245 37 16 143 22 197 12 40 -8 134 -50 175 -79 l31 -23 24 30 c47 58 47 59
-10 97 -89 59 -158 79 -277 83 -79 2 -117 -2 -155 -15z"/>
<path d="M5674 4317 c-144 -37 -226 -136 -227 -272 0 -60 5 -80 28 -124 45
-82 122 -126 303 -171 131 -33 181 -51 223 -82 62 -47 70 -147 17 -219 -44
-59 -184 -91 -293 -67 -59 13 -142 54 -201 98 l-51 38 -31 -36 c-17 -21 -32
-42 -32 -49 0 -6 32 -33 71 -58 213 -142 499 -139 623 7 61 71 83 192 50 275
-36 91 -146 163 -304 198 -155 34 -243 75 -270 126 -6 11 -14 39 -16 63 -23
183 254 244 465 102 l44 -29 24 29 c47 58 47 59 -10 97 -82 54 -157 77 -266
82 -61 3 -115 0 -147 -8z"/>
<path d="M6608 4316 c-147 -43 -231 -154 -222 -294 4 -57 34 -126 68 -156 61
-54 126 -81 286 -121 163 -41 232 -81 245 -142 4 -15 8 -33 10 -39 8 -26 -20
-96 -49 -125 -40 -39 -88 -59 -152 -63 -116 -7 -230 29 -330 104 l-52 39 -31
-39 c-17 -21 -31 -43 -31 -48 0 -15 111 -88 175 -115 146 -61 321 -61 441 1
144 73 189 277 90 407 -36 47 -146 98 -291 136 -66 16 -139 39 -162 50 -81 39
-117 112 -94 189 42 141 258 168 446 55 l60 -36 23 28 c48 58 47 60 -11 97
-30 19 -83 45 -118 56 -81 28 -233 36 -301 16z"/>
<path d="M9 4301 c0 -14 0 -976 0 -996 1 -14 34 -15 260 -15 265 1 328 8 403
44 48 23 101 72 122 113 23 45 31 139 16 193 -15 56 -88 130 -153 155 l-47 18
44 27 c74 47 111 119 109 214 -2 109 -56 186 -162 228 -52 21 -74 23 -323 26
-186 2 -268 0 -269 -7z m544 -120 c57 -28 88 -69 94 -126 10 -87 -41 -164
-127 -189 -29 -9 -106 -14 -222 -15 l-178 -2 0 179 0 180 193 -2 c178 -2 196
-4 240 -25z m50 -460 c82 -40 116 -108 95 -191 -12 -48 -50 -87 -107 -113 -41
-19 -67 -21 -258 -22 l-213 -2 0 180 0 179 218 -4 c202 -4 220 -6 265 -27z"/>
<path d="M1067 4303 c-2 -5 -3 -161 -2 -348 2 -369 5 -392 61 -496 36 -66 92
-115 173 -152 55 -25 81 -30 161 -33 257 -10 407 109 448 356 4 25 8 187 7
360 l0 315 -57 3 -58 3 -1 -323 c0 -178 -3 -336 -5 -353 -19 -127 -96 -219
-203 -245 -130 -31 -244 -5 -320 72 -81 82 -91 138 -91 535 l0 313 -54 0 c-30
0 -57 -3 -59 -7z"/>
<path d="M4479 4308 c-1 -2 -2 -231 -3 -510 l-1 -508 372 0 373 0 -3 53 -2 52
-310 0 -310 1 -3 177 -2 177 278 0 278 0 -2 48 c-1 26 -2 49 -3 52 0 3 -119 5
-263 5 -145 -1 -269 1 -275 3 -10 3 -13 47 -13 173 0 128 3 169 13 170 6 1
145 2 307 3 l295 1 3 53 3 52 -365 0 c-202 0 -367 -1 -367 -2z"/>
<path d="M3148 4106 c-3 -13 0 -32 5 -41 6 -11 6 -16 0 -12 -5 3 -10 -7 -10
-23 0 -17 5 -27 10 -23 6 4 7 1 2 -6 -12 -20 -14 -101 -3 -101 7 0 6 -5 -1
-13 -8 -10 -7 -17 2 -27 6 -7 7 -10 2 -7 -7 3 -11 -7 -11 -28 0 -21 4 -31 11
-28 5 3 4 0 -2 -8 -16 -16 -17 -33 -1 -23 7 5 8 3 3 -5 -12 -20 -14 -101 -3
-101 7 0 6 -5 -1 -13 -8 -10 -7 -17 2 -27 6 -7 7 -10 2 -7 -7 3 -11 -7 -11
-28 0 -21 4 -31 11 -28 5 3 4 0 -2 -8 -16 -16 -17 -33 -1 -23 7 5 8 3 3 -5
-12 -20 -14 -101 -3 -101 7 0 6 -5 -1 -13 -8 -10 -7 -17 2 -27 6 -7 7 -10 2
-7 -7 3 -11 -7 -11 -28 0 -21 4 -31 11 -27 5 3 4 -2 -4 -11 -12 -16 -9 -17 38
-17 l51 0 0 420 0 420 -44 0 c-38 0 -44 -3 -48 -24z"/>
<path d="M4495 2815 l0 -345 38 0 37 0 0 277 0 276 58 -81 c31 -44 88 -127
126 -183 l69 -102 21 28 c12 16 61 88 110 160 49 71 97 141 108 154 18 23 18
18 18 -253 l0 -276 39 0 39 0 0 345 0 345 -42 0 -41 -1 -119 -180 c-66 -99
-123 -182 -127 -184 -4 -3 -63 78 -131 180 l-123 184 -40 1 -40 0 0 -345z"/>
<path d="M5371 2815 l1 -345 39 0 39 0 0 345 0 345 -40 0 -40 0 1 -345z"/>
<path d="M5678 3148 c-2 -7 -4 -161 -4 -343 l1 -330 38 -3 37 -3 0 283 c1 225
3 280 13 267 7 -9 24 -31 39 -50 15 -19 64 -82 110 -140 46 -58 95 -121 110
-140 15 -19 60 -76 100 -127 66 -85 75 -93 103 -90 l30 3 0 340 0 340 -37 3
-38 3 0 -276 0 -277 -65 84 c-36 45 -71 90 -78 98 -7 8 -28 35 -47 60 -19 25
-37 47 -40 50 -3 3 -27 34 -54 70 -133 174 -148 190 -182 190 -17 0 -34 -6
-36 -12z"/>
<path d="M6470 2814 l0 -346 173 4 c170 4 173 4 232 35 78 40 126 88 162 160
24 51 28 69 28 148 0 76 -4 99 -26 145 -44 95 -134 166 -239 190 -25 5 -109
10 -187 10 l-143 0 0 -346z m360 249 c209 -94 212 -402 4 -495 -40 -18 -71
-22 -166 -24 l-118 -2 -1 154 c0 85 0 183 0 219 0 36 0 90 0 120 l1 55 118 -3
c91 -3 127 -8 162 -24z"/>
</g>
</svg>
